<?xml version="1.0" encoding="UTF-8" standalone="no"?><svg xmlns="http://www.w3.org/2000/svg" xmlns:xlink="http://www.w3.org/1999/xlink" contentStyleType="text/css" height="1270px" preserveAspectRatio="none" style="width:579px;height:1270px;background:#FFFFFF;" version="1.1" viewBox="0 0 579 1270" width="579px" zoomAndPan="magnify"><defs/><g><!--MD5=[0a7dac4942faf7b47aa23cf6f8b442ac]
class GameClient--><g id="elem_GameClient"><rect codeLine="2" fill="#F1F1F1" height="206.4844" id="GameClient" rx="2.5" ry="2.5" style="stroke:#181818;stroke-width:0.5;" width="314" x="249.36" y="151"/><ellipse cx="365.11" cy="167" fill="#ADD1B2" rx="11" ry="11" style="stroke:#181818;stroke-width:1.0;"/><path d="M367.8756,162.875 Q368.0319,162.6563 368.2194,162.5469 Q368.4069,162.4375 368.6256,162.4375 Q369.0006,162.4375 369.235,162.7031 Q369.4694,162.9531 369.4694,163.5625 L369.4694,165.0156 Q369.4694,165.625 369.235,165.8906 Q369.0006,166.1563 368.6256,166.1563 Q368.2819,166.1563 368.0788,165.9531 Q367.8756,165.7656 367.7663,165.25 Q367.7194,164.8906 367.5319,164.7031 Q367.2038,164.3281 366.5944,164.1094 Q365.985,163.8906 365.36,163.8906 Q364.5944,163.8906 363.9538,164.2188 Q363.3288,164.5469 362.8288,165.2969 Q362.3444,166.0469 362.3444,167.0781 L362.3444,168.1719 Q362.3444,169.4063 363.235,170.2344 Q364.1256,171.0469 365.7194,171.0469 Q366.6569,171.0469 367.3131,170.7969 Q367.7038,170.6406 368.1256,170.2031 Q368.3913,169.9375 368.5319,169.8594 Q368.6881,169.7813 368.8913,169.7813 Q369.2194,169.7813 369.4694,170.0469 Q369.735,170.2969 369.735,170.6406 Q369.735,170.9844 369.3913,171.3906 Q368.8913,171.9688 368.0944,172.2969 Q367.0163,172.75 365.7194,172.75 Q364.2038,172.75 363.0006,172.125 Q362.0163,171.625 361.3288,170.5625 Q360.6413,169.4844 360.6413,168.2031 L360.6413,167.0469 Q360.6413,165.7188 361.2506,164.5781 Q361.8756,163.4219 362.9694,162.8125 Q364.0631,162.1875 365.2975,162.1875 Q366.0319,162.1875 366.6725,162.3594 Q367.3288,162.5156 367.8756,162.875 Z " fill="#000000"/><text fill="#000000" font-family="sans-serif" font-size="14" lengthAdjust="spacing" textLength="74" x="385.61" y="172.7285">GameClient</text><line style="stroke:#181818;stroke-width:0.5;" x1="250.36" x2="562.36" y1="183" y2="183"/><rect fill="none" height="6" style="stroke:#C82930;stroke-width:1.0;" width="6" x="257.36" y="194.3047"/><text fill="#000000" font-family="sans-serif" font-size="14" lengthAdjust="spacing" textLength="127" x="269.36" y="201.5332">clientSocket: Socket</text><rect fill="none" height="6" style="stroke:#C82930;stroke-width:1.0;" width="6" x="257.36" y="211.9141"/><text fill="#000000" font-family="sans-serif" font-size="14" lengthAdjust="spacing" textLength="95" x="269.36" y="219.1426">out: PrintWriter</text><rect fill="none" height="6" style="stroke:#C82930;stroke-width:1.0;" width="6" x="257.36" y="229.5234"/><text fill="#000000" font-family="sans-serif" font-size="14" lengthAdjust="spacing" textLength="120" x="269.36" y="236.752">in: BufferedReader</text><rect fill="none" height="6" style="stroke:#C82930;stroke-width:1.0;" width="6" x="257.36" y="247.1328"/><text fill="#000000" font-family="sans-serif" font-size="14" lengthAdjust="spacing" textLength="54" x="269.36" y="254.3613">GUI: GUI</text><line style="stroke:#181818;stroke-width:0.5;" x1="250.36" x2="562.36" y1="261.4375" y2="261.4375"/><ellipse cx="260.36" cy="275.7422" fill="#84BE84" rx="3" ry="3" style="stroke:#038048;stroke-width:1.0;"/><text fill="#000000" font-family="sans-serif" font-size="14" lengthAdjust="spacing" textLength="231" x="269.36" y="279.9707">GameClient(GUI) throws IOException</text><ellipse cx="260.36" cy="293.3516" fill="#84BE84" rx="3" ry="3" style="stroke:#038048;stroke-width:1.0;"/><text fill="#000000" font-family="sans-serif" font-size="14" lengthAdjust="spacing" textLength="288" x="269.36" y="297.5801">receiveGameState(String) throws IOException</text><ellipse cx="260.36" cy="310.9609" fill="#84BE84" rx="3" ry="3" style="stroke:#038048;stroke-width:1.0;"/><text fill="#000000" font-family="sans-serif" font-size="14" lengthAdjust="spacing" textLength="186" x="269.36" y="315.1895">sendPlayerMove(String): void</text><ellipse cx="260.36" cy="328.5703" fill="#84BE84" rx="3" ry="3" style="stroke:#038048;stroke-width:1.0;"/><text fill="#000000" font-family="sans-serif" font-size="14" lengthAdjust="spacing" textLength="77" x="269.36" y="332.7988">close(): void</text><ellipse cx="260.36" cy="346.1797" fill="#84BE84" rx="3" ry="3" style="stroke:#038048;stroke-width:1.0;"/><text fill="#000000" font-family="sans-serif" font-size="14" lengthAdjust="spacing" textLength="157" x="269.36" y="350.4082">receiveTurn(String): void</text></g><!--MD5=[1f9aa183c03a5a4b2c7a355206fc0cf9]
class GUI--><g id="elem_GUI"><rect codeLine="15" fill="#F1F1F1" height="329.75" id="GUI" rx="2.5" ry="2.5" style="stroke:#181818;stroke-width:0.5;" width="257" x="128.86" y="435"/><ellipse cx="241.61" cy="451" fill="#ADD1B2" rx="11" ry="11" style="stroke:#181818;stroke-width:1.0;"/><path d="M244.3756,446.875 Q244.5319,446.6563 244.7194,446.5469 Q244.9069,446.4375 245.1256,446.4375 Q245.5006,446.4375 245.735,446.7031 Q245.9694,446.9531 245.9694,447.5625 L245.9694,449.0156 Q245.9694,449.625 245.735,449.8906 Q245.5006,450.1563 245.1256,450.1563 Q244.7819,450.1563 244.5788,449.9531 Q244.3756,449.7656 244.2663,449.25 Q244.2194,448.8906 244.0319,448.7031 Q243.7038,448.3281 243.0944,448.1094 Q242.485,447.8906 241.86,447.8906 Q241.0944,447.8906 240.4538,448.2188 Q239.8288,448.5469 239.3288,449.2969 Q238.8444,450.0469 238.8444,451.0781 L238.8444,452.1719 Q238.8444,453.4063 239.735,454.2344 Q240.6256,455.0469 242.2194,455.0469 Q243.1569,455.0469 243.8131,454.7969 Q244.2038,454.6406 244.6256,454.2031 Q244.8913,453.9375 245.0319,453.8594 Q245.1881,453.7813 245.3913,453.7813 Q245.7194,453.7813 245.9694,454.0469 Q246.235,454.2969 246.235,454.6406 Q246.235,454.9844 245.8913,455.3906 Q245.3913,455.9688 244.5944,456.2969 Q243.5163,456.75 242.2194,456.75 Q240.7038,456.75 239.5006,456.125 Q238.5163,455.625 237.8288,454.5625 Q237.1413,453.4844 237.1413,452.2031 L237.1413,451.0469 Q237.1413,449.7188 237.7506,448.5781 Q238.3756,447.4219 239.4694,446.8125 Q240.5631,446.1875 241.7975,446.1875 Q242.5319,446.1875 243.1725,446.3594 Q243.8288,446.5156 244.3756,446.875 Z " fill="#000000"/><text fill="#000000" font-family="sans-serif" font-size="14" lengthAdjust="spacing" textLength="23" x="262.11" y="456.7285">GUI</text><line style="stroke:#181818;stroke-width:0.5;" x1="129.86" x2="384.86" y1="467" y2="467"/><rect fill="none" height="6" style="stroke:#C82930;stroke-width:1.0;" width="6" x="136.86" y="478.3047"/><text fill="#000000" font-family="sans-serif" font-size="14" lengthAdjust="spacing" textLength="108" x="148.86" y="485.5332">balls: List&lt;CBall&gt;</text><rect fill="none" height="6" style="stroke:#C82930;stroke-width:1.0;" width="6" x="136.86" y="495.9141"/><text fill="#000000" font-family="sans-serif" font-size="14" lengthAdjust="spacing" textLength="95" x="148.86" y="503.1426">button: JButton</text><rect fill="none" height="6" style="stroke:#C82930;stroke-width:1.0;" width="6" x="136.86" y="513.5234"/><text fill="#000000" font-family="sans-serif" font-size="14" lengthAdjust="spacing" textLength="125" x="148.86" y="520.752">textField: JTextField</text><rect fill="none" height="6" style="stroke:#C82930;stroke-width:1.0;" width="6" x="136.86" y="531.1328"/><text fill="#000000" font-family="sans-serif" font-size="14" lengthAdjust="spacing" textLength="193" x="148.86" y="538.3613">offScreenImageDrawed: Image</text><rect fill="none" height="6" style="stroke:#C82930;stroke-width:1.0;" width="6" x="136.86" y="548.7422"/><text fill="#000000" font-family="sans-serif" font-size="14" lengthAdjust="spacing" textLength="231" x="148.86" y="555.9707">offScreenGraphicsDrawed: Graphics</text><rect fill="none" height="6" style="stroke:#C82930;stroke-width:1.0;" width="6" x="136.86" y="566.3516"/><text fill="#000000" font-family="sans-serif" font-size="14" lengthAdjust="spacing" textLength="121" x="148.86" y="573.5801">ballImages: Image[]</text><rect fill="none" height="6" style="stroke:#C82930;stroke-width:1.0;" width="6" x="136.86" y="583.9609"/><text fill="#000000" font-family="sans-serif" font-size="14" lengthAdjust="spacing" textLength="107" x="148.86" y="591.1895">cueImage: Image</text><rect fill="none" height="6" style="stroke:#C82930;stroke-width:1.0;" width="6" x="136.86" y="601.5703"/><text fill="#000000" font-family="sans-serif" font-size="14" lengthAdjust="spacing" textLength="138" x="148.86" y="608.7988">ballTypeLabel: JLabel</text><line style="stroke:#181818;stroke-width:0.5;" x1="129.86" x2="384.86" y1="615.875" y2="615.875"/><ellipse cx="139.86" cy="630.1797" fill="#84BE84" rx="3" ry="3" style="stroke:#038048;stroke-width:1.0;"/><text fill="#000000" font-family="sans-serif" font-size="14" lengthAdjust="spacing" textLength="33" x="148.86" y="634.4082">GUI()</text><ellipse cx="139.86" cy="647.7891" fill="#84BE84" rx="3" ry="3" style="stroke:#038048;stroke-width:1.0;"/><text fill="#000000" font-family="sans-serif" font-size="14" lengthAdjust="spacing" textLength="140" x="148.86" y="652.0176">updateCue(Cue): void</text><ellipse cx="139.86" cy="665.3984" fill="#84BE84" rx="3" ry="3" style="stroke:#038048;stroke-width:1.0;"/><text fill="#000000" font-family="sans-serif" font-size="14" lengthAdjust="spacing" textLength="189" x="148.86" y="669.627">updateBalls(List&lt;CBall&gt;): void</text><ellipse cx="139.86" cy="683.0078" fill="#84BE84" rx="3" ry="3" style="stroke:#038048;stroke-width:1.0;"/><text fill="#000000" font-family="sans-serif" font-size="14" lengthAdjust="spacing" textLength="132" x="148.86" y="687.2363">paint(Graphics): void</text><ellipse cx="139.86" cy="700.6172" fill="#84BE84" rx="3" ry="3" style="stroke:#038048;stroke-width:1.0;"/><text fill="#000000" font-family="sans-serif" font-size="14" lengthAdjust="spacing" textLength="207" x="148.86" y="704.8457">renderOffScreen(Graphics): void</text><ellipse cx="139.86" cy="718.2266" fill="#84BE84" rx="3" ry="3" style="stroke:#038048;stroke-width:1.0;"/><text fill="#000000" font-family="sans-serif" font-size="14" lengthAdjust="spacing" textLength="126" x="148.86" y="722.4551">getButton(): JButton</text><ellipse cx="139.86" cy="735.8359" fill="#84BE84" rx="3" ry="3" style="stroke:#038048;stroke-width:1.0;"/><text fill="#000000" font-family="sans-serif" font-size="14" lengthAdjust="spacing" textLength="149" x="148.86" y="740.0645">getPlayerMove(): String</text><ellipse cx="139.86" cy="753.4453" fill="#84BE84" rx="3" ry="3" style="stroke:#038048;stroke-width:1.0;"/><text fill="#000000" font-family="sans-serif" font-size="14" lengthAdjust="spacing" textLength="180" x="148.86" y="757.6738">updateBallType(String): void</text></g><!--MD5=[4901b21e8b97c25663c0a593070f735e]
class CBall--><g id="elem_CBall"><rect codeLine="35" fill="#F1F1F1" height="171.2656" id="CBall" rx="2.5" ry="2.5" style="stroke:#181818;stroke-width:0.5;" width="130" x="27.36" y="843"/><ellipse cx="71.61" cy="859" fill="#ADD1B2" rx="11" ry="11" style="stroke:#181818;stroke-width:1.0;"/><path d="M74.3756,854.875 Q74.5319,854.6563 74.7194,854.5469 Q74.9069,854.4375 75.1256,854.4375 Q75.5006,854.4375 75.735,854.7031 Q75.9694,854.9531 75.9694,855.5625 L75.9694,857.0156 Q75.9694,857.625 75.735,857.8906 Q75.5006,858.1563 75.1256,858.1563 Q74.7819,858.1563 74.5788,857.9531 Q74.3756,857.7656 74.2663,857.25 Q74.2194,856.8906 74.0319,856.7031 Q73.7038,856.3281 73.0944,856.1094 Q72.485,855.8906 71.86,855.8906 Q71.0944,855.8906 70.4538,856.2188 Q69.8288,856.5469 69.3288,857.2969 Q68.8444,858.0469 68.8444,859.0781 L68.8444,860.1719 Q68.8444,861.4063 69.735,862.2344 Q70.6256,863.0469 72.2194,863.0469 Q73.1569,863.0469 73.8131,862.7969 Q74.2038,862.6406 74.6256,862.2031 Q74.8913,861.9375 75.0319,861.8594 Q75.1881,861.7813 75.3913,861.7813 Q75.7194,861.7813 75.9694,862.0469 Q76.235,862.2969 76.235,862.6406 Q76.235,862.9844 75.8913,863.3906 Q75.3913,863.9688 74.5944,864.2969 Q73.5163,864.75 72.2194,864.75 Q70.7038,864.75 69.5006,864.125 Q68.5163,863.625 67.8288,862.5625 Q67.1413,861.4844 67.1413,860.2031 L67.1413,859.0469 Q67.1413,857.7188 67.7506,856.5781 Q68.3756,855.4219 69.4694,854.8125 Q70.5631,854.1875 71.7975,854.1875 Q72.5319,854.1875 73.1725,854.3594 Q73.8288,854.5156 74.3756,854.875 Z " fill="#000000"/><text fill="#000000" font-family="sans-serif" font-size="14" lengthAdjust="spacing" textLength="33" x="92.11" y="864.7285">CBall</text><line style="stroke:#181818;stroke-width:0.5;" x1="28.36" x2="156.36" y1="875" y2="875"/><rect fill="none" height="6" style="stroke:#C82930;stroke-width:1.0;" width="6" x="35.36" y="886.3047"/><text fill="#000000" font-family="sans-serif" font-size="14" lengthAdjust="spacing" textLength="71" x="47.36" y="893.5332">number: int</text><rect fill="none" height="6" style="stroke:#C82930;stroke-width:1.0;" width="6" x="35.36" y="903.9141"/><text fill="#000000" font-family="sans-serif" font-size="14" lengthAdjust="spacing" textLength="29" x="47.36" y="911.1426">x: int</text><rect fill="none" height="6" style="stroke:#C82930;stroke-width:1.0;" width="6" x="35.36" y="921.5234"/><text fill="#000000" font-family="sans-serif" font-size="14" lengthAdjust="spacing" textLength="30" x="47.36" y="928.752">y: int</text><line style="stroke:#181818;stroke-width:0.5;" x1="28.36" x2="156.36" y1="935.8281" y2="935.8281"/><ellipse cx="38.36" cy="950.1328" fill="#84BE84" rx="3" ry="3" style="stroke:#038048;stroke-width:1.0;"/><text fill="#000000" font-family="sans-serif" font-size="14" lengthAdjust="spacing" textLength="104" x="47.36" y="954.3613">CBall(int, int, int)</text><ellipse cx="38.36" cy="967.7422" fill="#84BE84" rx="3" ry="3" style="stroke:#038048;stroke-width:1.0;"/><text fill="#000000" font-family="sans-serif" font-size="14" lengthAdjust="spacing" textLength="102" x="47.36" y="971.9707">getNumber(): int</text><ellipse cx="38.36" cy="985.3516" fill="#84BE84" rx="3" ry="3" style="stroke:#038048;stroke-width:1.0;"/><text fill="#000000" font-family="sans-serif" font-size="14" lengthAdjust="spacing" textLength="61" x="47.36" y="989.5801">getX(): int</text><ellipse cx="38.36" cy="1002.9609" fill="#84BE84" rx="3" ry="3" style="stroke:#038048;stroke-width:1.0;"/><text fill="#000000" font-family="sans-serif" font-size="14" lengthAdjust="spacing" textLength="62" x="47.36" y="1007.1895">getY(): int</text></g><!--MD5=[c7e500fa6390bd81062eb1d6c99b636c]
class Cue--><g id="elem_Cue"><rect codeLine="46" fill="#F1F1F1" height="171.2656" id="Cue" rx="2.5" ry="2.5" style="stroke:#181818;stroke-width:0.5;" width="168" x="322.36" y="843"/><ellipse cx="389.11" cy="859" fill="#ADD1B2" rx="11" ry="11" style="stroke:#181818;stroke-width:1.0;"/><path d="M391.8756,854.875 Q392.0319,854.6563 392.2194,854.5469 Q392.4069,854.4375 392.6256,854.4375 Q393.0006,854.4375 393.235,854.7031 Q393.4694,854.9531 393.4694,855.5625 L393.4694,857.0156 Q393.4694,857.625 393.235,857.8906 Q393.0006,858.1563 392.6256,858.1563 Q392.2819,858.1563 392.0788,857.9531 Q391.8756,857.7656 391.7663,857.25 Q391.7194,856.8906 391.5319,856.7031 Q391.2038,856.3281 390.5944,856.1094 Q389.985,855.8906 389.36,855.8906 Q388.5944,855.8906 387.9538,856.2188 Q387.3288,856.5469 386.8288,857.2969 Q386.3444,858.0469 386.3444,859.0781 L386.3444,860.1719 Q386.3444,861.4063 387.235,862.2344 Q388.1256,863.0469 389.7194,863.0469 Q390.6569,863.0469 391.3131,862.7969 Q391.7038,862.6406 392.1256,862.2031 Q392.3913,861.9375 392.5319,861.8594 Q392.6881,861.7813 392.8913,861.7813 Q393.2194,861.7813 393.4694,862.0469 Q393.735,862.2969 393.735,862.6406 Q393.735,862.9844 393.3913,863.3906 Q392.8913,863.9688 392.0944,864.2969 Q391.0163,864.75 389.7194,864.75 Q388.2038,864.75 387.0006,864.125 Q386.0163,863.625 385.3288,862.5625 Q384.6413,861.4844 384.6413,860.2031 L384.6413,859.0469 Q384.6413,857.7188 385.2506,856.5781 Q385.8756,855.4219 386.9694,854.8125 Q388.0631,854.1875 389.2975,854.1875 Q390.0319,854.1875 390.6725,854.3594 Q391.3288,854.5156 391.8756,854.875 Z " fill="#000000"/><text fill="#000000" font-family="sans-serif" font-size="14" lengthAdjust="spacing" textLength="26" x="409.61" y="864.7285">Cue</text><line style="stroke:#181818;stroke-width:0.5;" x1="323.36" x2="489.36" y1="875" y2="875"/><rect fill="none" height="6" style="stroke:#C82930;stroke-width:1.0;" width="6" x="330.36" y="886.3047"/><text fill="#000000" font-family="sans-serif" font-size="14" lengthAdjust="spacing" textLength="86" x="342.36" y="893.5332">angle: double</text><rect fill="none" height="6" style="stroke:#C82930;stroke-width:1.0;" width="6" x="330.36" y="903.9141"/><text fill="#000000" font-family="sans-serif" font-size="14" lengthAdjust="spacing" textLength="61" x="342.36" y="911.1426">power: int</text><line style="stroke:#181818;stroke-width:0.5;" x1="323.36" x2="489.36" y1="918.2188" y2="918.2188"/><ellipse cx="333.36" cy="932.5234" fill="#84BE84" rx="3" ry="3" style="stroke:#038048;stroke-width:1.0;"/><text fill="#000000" font-family="sans-serif" font-size="14" lengthAdjust="spacing" textLength="36" x="342.36" y="936.752">Cue()</text><ellipse cx="333.36" cy="950.1328" fill="#84BE84" rx="3" ry="3" style="stroke:#038048;stroke-width:1.0;"/><text fill="#000000" font-family="sans-serif" font-size="14" lengthAdjust="spacing" textLength="117" x="342.36" y="954.3613">getAngle(): double</text><ellipse cx="333.36" cy="967.7422" fill="#84BE84" rx="3" ry="3" style="stroke:#038048;stroke-width:1.0;"/><text fill="#000000" font-family="sans-serif" font-size="14" lengthAdjust="spacing" textLength="142" x="342.36" y="971.9707">setAngle(double): void</text><ellipse cx="333.36" cy="985.3516" fill="#84BE84" rx="3" ry="3" style="stroke:#038048;stroke-width:1.0;"/><text fill="#000000" font-family="sans-serif" font-size="14" lengthAdjust="spacing" textLength="92" x="342.36" y="989.5801">getPower(): int</text><ellipse cx="333.36" cy="1002.9609" fill="#84BE84" rx="3" ry="3" style="stroke:#038048;stroke-width:1.0;"/><text fill="#000000" font-family="sans-serif" font-size="14" lengthAdjust="spacing" textLength="117" x="342.36" y="1007.1895">setPower(int): void</text></g><!--MD5=[1bfa4d71b85366dd232ef55c006d99ba]
class CConstants--><g id="elem_CConstants"><rect codeLine="57" fill="#F1F1F1" height="171.2656" id="CConstants" rx="2.5" ry="2.5" style="stroke:#181818;stroke-width:0.5;" width="128" x="342.36" y="1092"/><ellipse cx="367.26" cy="1108" fill="#ADD1B2" rx="11" ry="11" style="stroke:#181818;stroke-width:1.0;"/><path d="M370.0256,1103.875 Q370.1819,1103.6563 370.3694,1103.5469 Q370.5569,1103.4375 370.7756,1103.4375 Q371.1506,1103.4375 371.385,1103.7031 Q371.6194,1103.9531 371.6194,1104.5625 L371.6194,1106.0156 Q371.6194,1106.625 371.385,1106.8906 Q371.1506,1107.1563 370.7756,1107.1563 Q370.4319,1107.1563 370.2288,1106.9531 Q370.0256,1106.7656 369.9163,1106.25 Q369.8694,1105.8906 369.6819,1105.7031 Q369.3538,1105.3281 368.7444,1105.1094 Q368.135,1104.8906 367.51,1104.8906 Q366.7444,1104.8906 366.1038,1105.2188 Q365.4788,1105.5469 364.9788,1106.2969 Q364.4944,1107.0469 364.4944,1108.0781 L364.4944,1109.1719 Q364.4944,1110.4063 365.385,1111.2344 Q366.2756,1112.0469 367.8694,1112.0469 Q368.8069,1112.0469 369.4631,1111.7969 Q369.8538,1111.6406 370.2756,1111.2031 Q370.5413,1110.9375 370.6819,1110.8594 Q370.8381,1110.7813 371.0413,1110.7813 Q371.3694,1110.7813 371.6194,1111.0469 Q371.885,1111.2969 371.885,1111.6406 Q371.885,1111.9844 371.5413,1112.3906 Q371.0413,1112.9688 370.2444,1113.2969 Q369.1663,1113.75 367.8694,1113.75 Q366.3538,1113.75 365.1506,1113.125 Q364.1663,1112.625 363.4788,1111.5625 Q362.7913,1110.4844 362.7913,1109.2031 L362.7913,1108.0469 Q362.7913,1106.7188 363.4006,1105.5781 Q364.0256,1104.4219 365.1194,1103.8125 Q366.2131,1103.1875 367.4475,1103.1875 Q368.1819,1103.1875 368.8225,1103.3594 Q369.4788,1103.5156 370.0256,1103.875 Z " fill="#000000"/><text fill="#000000" font-family="sans-serif" font-size="14" lengthAdjust="spacing" textLength="74" x="383.46" y="1113.7285">CConstants</text><line style="stroke:#181818;stroke-width:0.5;" x1="343.36" x2="469.36" y1="1124" y2="1124"/><ellipse cx="353.36" cy="1138.3047" fill="none" rx="3" ry="3" style="stroke:#038048;stroke-width:1.0;"/><text fill="#000000" font-family="sans-serif" font-size="14" lengthAdjust="spacing" textLength="102" x="362.36" y="1142.5332">ballDiameter: int</text><ellipse cx="353.36" cy="1155.9141" fill="none" rx="3" ry="3" style="stroke:#038048;stroke-width:1.0;"/><text fill="#000000" font-family="sans-serif" font-size="14" lengthAdjust="spacing" textLength="100" x="362.36" y="1160.1426">potDiameter: int</text><ellipse cx="353.36" cy="1173.5234" fill="none" rx="3" ry="3" style="stroke:#038048;stroke-width:1.0;"/><text fill="#000000" font-family="sans-serif" font-size="14" lengthAdjust="spacing" textLength="90" x="362.36" y="1177.752">tableWidth: int</text><ellipse cx="353.36" cy="1191.1328" fill="none" rx="3" ry="3" style="stroke:#038048;stroke-width:1.0;"/><text fill="#000000" font-family="sans-serif" font-size="14" lengthAdjust="spacing" textLength="94" x="362.36" y="1195.3613">tableHeight: int</text><ellipse cx="353.36" cy="1208.7422" fill="none" rx="3" ry="3" style="stroke:#038048;stroke-width:1.0;"/><text fill="#000000" font-family="sans-serif" font-size="14" lengthAdjust="spacing" textLength="93" x="362.36" y="1212.9707">widthOffset: int</text><ellipse cx="353.36" cy="1226.3516" fill="none" rx="3" ry="3" style="stroke:#038048;stroke-width:1.0;"/><text fill="#000000" font-family="sans-serif" font-size="14" lengthAdjust="spacing" textLength="100" x="362.36" y="1230.5801">heightOffset: int</text><line style="stroke:#181818;stroke-width:0.5;" x1="343.36" x2="469.36" y1="1237.6563" y2="1237.6563"/><ellipse cx="353.36" cy="1251.9609" fill="#84BE84" rx="3" ry="3" style="stroke:#038048;stroke-width:1.0;"/><text fill="#000000" font-family="sans-serif" font-size="14" lengthAdjust="spacing" textLength="97" x="362.36" y="1256.1895">getRadius(): int</text></g><!--MD5=[d26137e5d461602f48e26353ca7979f6]
class app--><g id="elem_app"><rect codeLine="68" fill="#F1F1F1" height="65.6094" id="app" rx="2.5" ry="2.5" style="stroke:#181818;stroke-width:0.5;" width="145" x="333.86" y="7"/><ellipse cx="390.11" cy="23" fill="#ADD1B2" rx="11" ry="11" style="stroke:#181818;stroke-width:1.0;"/><path d="M392.8756,18.875 Q393.0319,18.6563 393.2194,18.5469 Q393.4069,18.4375 393.6256,18.4375 Q394.0006,18.4375 394.235,18.7031 Q394.4694,18.9531 394.4694,19.5625 L394.4694,21.0156 Q394.4694,21.625 394.235,21.8906 Q394.0006,22.1563 393.6256,22.1563 Q393.2819,22.1563 393.0788,21.9531 Q392.8756,21.7656 392.7663,21.25 Q392.7194,20.8906 392.5319,20.7031 Q392.2038,20.3281 391.5944,20.1094 Q390.985,19.8906 390.36,19.8906 Q389.5944,19.8906 388.9538,20.2188 Q388.3288,20.5469 387.8288,21.2969 Q387.3444,22.0469 387.3444,23.0781 L387.3444,24.1719 Q387.3444,25.4063 388.235,26.2344 Q389.1256,27.0469 390.7194,27.0469 Q391.6569,27.0469 392.3131,26.7969 Q392.7038,26.6406 393.1256,26.2031 Q393.3913,25.9375 393.5319,25.8594 Q393.6881,25.7813 393.8913,25.7813 Q394.2194,25.7813 394.4694,26.0469 Q394.735,26.2969 394.735,26.6406 Q394.735,26.9844 394.3913,27.3906 Q393.8913,27.9688 393.0944,28.2969 Q392.0163,28.75 390.7194,28.75 Q389.2038,28.75 388.0006,28.125 Q387.0163,27.625 386.3288,26.5625 Q385.6413,25.4844 385.6413,24.2031 L385.6413,23.0469 Q385.6413,21.7188 386.2506,20.5781 Q386.8756,19.4219 387.9694,18.8125 Q389.0631,18.1875 390.2975,18.1875 Q391.0319,18.1875 391.6725,18.3594 Q392.3288,18.5156 392.8756,18.875 Z " fill="#000000"/><text fill="#000000" font-family="sans-serif" font-size="14" lengthAdjust="spacing" textLength="24" x="410.61" y="28.7285">app</text><line style="stroke:#181818;stroke-width:0.5;" x1="334.86" x2="477.86" y1="39" y2="39"/><line style="stroke:#181818;stroke-width:0.5;" x1="334.86" x2="477.86" y1="47" y2="47"/><ellipse cx="344.86" cy="61.3047" fill="#84BE84" rx="3" ry="3" style="stroke:#038048;stroke-width:1.0;"/><text fill="#000000" font-family="sans-serif" font-size="14" lengthAdjust="spacing" textLength="119" x="353.86" y="65.5332">main(String[]): void</text></g><!--MD5=[5b1a8cfc49e466b9b9587be6923bd130]
link GameClient to GUI--><g id="link_GameClient_GUI"><path codeLine="72" d="M362.06,357.28 C352.09,380.31 341.24,405.34 330.44,430.28 " fill="none" id="GameClient-to-GUI" style="stroke:#181818;stroke-width:1.0;"/><polygon fill="#181818" points="328.42,434.94,335.6594,428.2623,330.4016,430.3495,328.3145,425.0917,328.42,434.94" style="stroke:#181818;stroke-width:1.0;"/><text fill="#000000" font-family="sans-serif" font-size="13" lengthAdjust="spacing" textLength="51" x="346.36" y="401.4951">Contains</text></g><!--MD5=[5cdcaf677a3f5a864cdd6b5b62b001ba]
link GameClient to CBall--><g id="link_GameClient_CBall"><path codeLine="73" d="M249.13,301.74 C184.7,329.5 116.62,371.96 79.36,435 C6,559.13 34.89,733.34 63.18,837.85 " fill="none" id="GameClient-to-CBall" style="stroke:#181818;stroke-width:1.0;"/><polygon fill="#181818" points="64.52,842.77,65.9817,833.0302,63.1899,837.9502,58.2699,835.1584,64.52,842.77" style="stroke:#181818;stroke-width:1.0;"/><text fill="#000000" font-family="sans-serif" font-size="13" lengthAdjust="spacing" textLength="30" x="80.36" y="605.4951">Uses</text></g><!--MD5=[941993b9a7b5b7a0db8903e0aa1f86e0]
link GameClient to Cue--><g id="link_GameClient_Cue"><path codeLine="74" d="M408.57,357.01 C410.8,465.58 414.09,642.41 415.36,795 C415.43,803 415.67,805.01 415.36,813 C415.05,821 414.61,829.31 414.1,837.64 " fill="none" id="GameClient-to-Cue" style="stroke:#181818;stroke-width:1.0;"/><polygon fill="#181818" points="413.77,842.82,418.3283,834.0895,414.0846,837.8299,410.3441,833.5862,413.77,842.82" style="stroke:#181818;stroke-width:1.0;"/><text fill="#000000" font-family="sans-serif" font-size="13" lengthAdjust="spacing" textLength="30" x="416.36" y="605.4951">Uses</text></g><!--MD5=[f842f444051d1982c18327920cd98bfe]
link GameClient to CConstants--><g id="link_GameClient_CConstants"><path codeLine="75" d="M445.89,357.28 C497.16,504.89 572.72,785.03 507.36,1014 C499.98,1039.86 487.16,1065.62 473.09,1088.75 " fill="none" id="GameClient-to-CConstants" style="stroke:#181818;stroke-width:1.0;"/><polygon fill="#181818" points="470.45,1093.04,478.5818,1087.4836,473.0769,1088.7856,471.7748,1083.2807,470.45,1093.04" style="stroke:#181818;stroke-width:1.0;"/><text fill="#000000" font-family="sans-serif" font-size="13" lengthAdjust="spacing" textLength="30" x="534.36" y="809.4951">Uses</text></g><!--MD5=[7219f4ea67c6621b10ebea7cf825bc44]
link GUI to CBall--><g id="link_GUI_CBall"><path codeLine="77" d="M174.38,765.21 C161.66,790.37 148.96,815.5 137.49,838.2 " fill="none" id="GUI-to-CBall" style="stroke:#181818;stroke-width:1.0;"/><polygon fill="#181818" points="135.21,842.71,142.8365,836.4781,137.4632,838.2465,135.6949,832.8731,135.21,842.71" style="stroke:#181818;stroke-width:1.0;"/><text fill="#000000" font-family="sans-serif" font-size="13" lengthAdjust="spacing" textLength="51" x="156.36" y="809.4951">Contains</text></g><!--MD5=[6397ce006daf52f653eeebfb17fa6f1e]
link GUI to Cue--><g id="link_GUI_Cue"><path codeLine="78" d="M332.3,765.21 C343.73,790.26 355.15,815.29 365.48,837.92 " fill="none" id="GUI-to-Cue" style="stroke:#181818;stroke-width:1.0;"/><polygon fill="#181818" points="367.67,842.71,367.5756,832.8616,365.5956,838.1606,360.2966,836.1806,367.67,842.71" style="stroke:#181818;stroke-width:1.0;"/><text fill="#000000" font-family="sans-serif" font-size="13" lengthAdjust="spacing" textLength="51" x="355.36" y="809.4951">Contains</text></g><!--MD5=[a152adee00cf33e61ef08db8ed47aaac]
link GUI to CConstants--><g id="link_GUI_CConstants"><path codeLine="79" d="M239.45,765.14 C236.89,842.91 242.62,935.69 272.36,1014 C286.52,1051.3 312.95,1086.32 338.62,1114.23 " fill="none" id="GUI-to-CConstants" style="stroke:#181818;stroke-width:1.0;"/><polygon fill="#181818" points="342.07,1117.94,338.8715,1108.625,338.6656,1114.2781,333.0124,1114.0721,342.07,1117.94" style="stroke:#181818;stroke-width:1.0;"/><text fill="#000000" font-family="sans-serif" font-size="13" lengthAdjust="spacing" textLength="30" x="273.36" y="933.9951">Uses</text></g><!--MD5=[2a47659333d671aa94aedcb06f7809ee]
link Cue to CConstants--><g id="link_Cue_CConstants"><path codeLine="81" d="M406.36,1014.16 C406.36,1037.63 406.36,1063.18 406.36,1086.92 " fill="none" id="Cue-to-CConstants" style="stroke:#181818;stroke-width:1.0;"/><polygon fill="#181818" points="406.36,1091.95,410.36,1082.95,406.36,1086.95,402.36,1082.95,406.36,1091.95" style="stroke:#181818;stroke-width:1.0;"/><text fill="#000000" font-family="sans-serif" font-size="13" lengthAdjust="spacing" textLength="30" x="407.36" y="1058.4951">Uses</text></g><!--MD5=[912eab0f396e33af1f52ef84e4205d37]
link app to GameClient--><g id="link_app_GameClient"><path codeLine="83" d="M406.36,73.2 C406.36,92.75 406.36,118.94 406.36,145.27 " fill="none" id="app-to-GameClient" style="stroke:#181818;stroke-width:1.0;"/><polygon fill="#181818" points="406.36,150.54,410.36,141.54,406.36,145.54,402.36,141.54,406.36,150.54" style="stroke:#181818;stroke-width:1.0;"/><text fill="#000000" font-family="sans-serif" font-size="13" lengthAdjust="spacing" textLength="30" x="407.36" y="117.4951">Uses</text></g><!--MD5=[839f54a77535686e40229e9e26885047]
@startuml ClientClass

class GameClient {
    - clientSocket: Socket
    - out: PrintWriter
    - in: BufferedReader
    - GUI: GUI

    + GameClient(GUI) throws IOException
    + receiveGameState(String) throws IOException
    + sendPlayerMove(String): void
    + close(): void
    + receiveTurn(String): void
}

class GUI {
    - balls: List<CBall>
    - button: JButton
    - textField: JTextField
    - offScreenImageDrawed: Image
    - offScreenGraphicsDrawed: Graphics
    - ballImages: Image[]
    - cueImage: Image
    - ballTypeLabel: JLabel

    + GUI()
    + updateCue(Cue): void
    + updateBalls(List<CBall>): void
    + paint(Graphics): void
    + renderOffScreen(Graphics): void
    + getButton(): JButton
    + getPlayerMove(): String
    + updateBallType(String): void
}

class CBall {
    - number: int
    - x: int
    - y: int

    + CBall(int, int, int)
    + getNumber(): int
    + getX(): int
    + getY(): int
}

class Cue {
    - angle: double
    - power: int

    + Cue()
    + getAngle(): double
    + setAngle(double): void
    + getPower(): int
    + setPower(int): void
}

class CConstants {
    + ballDiameter: int
    + potDiameter: int
    + tableWidth: int
    + tableHeight: int
    + widthOffset: int
    + heightOffset: int

    + getRadius(): int
}

class app {
    + main(String[]): void
}

GameClient - -> GUI: Contains
GameClient - -> CBall: Uses
GameClient - -> Cue: Uses
GameClient - -> CConstants: Uses

GUI - -> CBall: Contains
GUI - -> Cue: Contains
GUI - -> CConstants: Uses

Cue - -> CConstants: Uses

app - -> GameClient: Uses

@enduml

PlantUML version 1.2022.7(Mon Aug 22 19:01:30 CEST 2022)
(GPL source distribution)
Java Runtime: Java(TM) SE Runtime Environment
JVM: Java HotSpot(TM) 64-Bit Server VM
Default Encoding: Cp1252
Language: it
Country: IT
--></g></svg>