<?xml version="1.0" encoding="UTF-8" standalone="no"?><svg xmlns="http://www.w3.org/2000/svg" xmlns:xlink="http://www.w3.org/1999/xlink" contentStyleType="text/css" height="848px" preserveAspectRatio="none" style="width:413px;height:848px;background:#FFFFFF;" version="1.1" viewBox="0 0 413 848" width="413px" zoomAndPan="magnify"><defs/><g><line style="stroke:#181818;stroke-width:0.5;stroke-dasharray:5.0,5.0;" x1="34" x2="34" y1="37.6094" y2="811.6953"/><line style="stroke:#181818;stroke-width:0.5;stroke-dasharray:5.0,5.0;" x1="206" x2="206" y1="37.6094" y2="811.6953"/><line style="stroke:#181818;stroke-width:0.5;stroke-dasharray:5.0,5.0;" x1="378" x2="378" y1="37.6094" y2="811.6953"/><rect fill="#E2E2F0" height="31.6094" rx="2.5" ry="2.5" style="stroke:#181818;stroke-width:0.5;" width="58" x="5" y="5"/><text fill="#000000" font-family="sans-serif" font-size="14" lengthAdjust="spacing" textLength="44" x="12" y="26.5332">Client1</text><rect fill="#E2E2F0" height="31.6094" rx="2.5" ry="2.5" style="stroke:#181818;stroke-width:0.5;" width="58" x="5" y="810.6953"/><text fill="#000000" font-family="sans-serif" font-size="14" lengthAdjust="spacing" textLength="44" x="12" y="832.2285">Client1</text><rect fill="#E2E2F0" height="31.6094" rx="2.5" ry="2.5" style="stroke:#181818;stroke-width:0.5;" width="56" x="178" y="5"/><text fill="#000000" font-family="sans-serif" font-size="14" lengthAdjust="spacing" textLength="42" x="185" y="26.5332">Server</text><rect fill="#E2E2F0" height="31.6094" rx="2.5" ry="2.5" style="stroke:#181818;stroke-width:0.5;" width="56" x="178" y="810.6953"/><text fill="#000000" font-family="sans-serif" font-size="14" lengthAdjust="spacing" textLength="42" x="185" y="832.2285">Server</text><rect fill="#E2E2F0" height="31.6094" rx="2.5" ry="2.5" style="stroke:#181818;stroke-width:0.5;" width="58" x="349" y="5"/><text fill="#000000" font-family="sans-serif" font-size="14" lengthAdjust="spacing" textLength="44" x="356" y="26.5332">Client2</text><rect fill="#E2E2F0" height="31.6094" rx="2.5" ry="2.5" style="stroke:#181818;stroke-width:0.5;" width="58" x="349" y="810.6953"/><text fill="#000000" font-family="sans-serif" font-size="14" lengthAdjust="spacing" textLength="44" x="356" y="832.2285">Client2</text><polygon fill="#181818" points="194,65.9609,204,69.9609,194,73.9609,198,69.9609" style="stroke:#181818;stroke-width:1.0;"/><line style="stroke:#181818;stroke-width:1.0;" x1="34" x2="200" y1="69.9609" y2="69.9609"/><text fill="#000000" font-family="sans-serif" font-size="13" lengthAdjust="spacing" textLength="101" x="41" y="65.1045">Connect to server</text><line style="stroke:#181818;stroke-width:1.0;" x1="164" x2="206" y1="100.3125" y2="100.3125"/><line style="stroke:#181818;stroke-width:1.0;" x1="164" x2="164" y1="100.3125" y2="113.3125"/><line style="stroke:#181818;stroke-width:1.0;" x1="164" x2="205" y1="113.3125" y2="113.3125"/><polygon fill="#181818" points="197,109.3125,207,113.3125,197,117.3125,201,113.3125" style="stroke:#181818;stroke-width:1.0;"/><text fill="#000000" font-family="sans-serif" font-size="13" lengthAdjust="spacing" textLength="158" x="48" y="95.4561">Socket created for Player 1</text><polygon fill="#181818" points="217,139.6641,207,143.6641,217,147.6641,213,143.6641" style="stroke:#181818;stroke-width:1.0;"/><line style="stroke:#181818;stroke-width:1.0;" x1="211" x2="377" y1="143.6641" y2="143.6641"/><text fill="#000000" font-family="sans-serif" font-size="13" lengthAdjust="spacing" textLength="101" x="223" y="138.8076">Connect to server</text><line style="stroke:#181818;stroke-width:1.0;" x1="206" x2="248" y1="174.0156" y2="174.0156"/><line style="stroke:#181818;stroke-width:1.0;" x1="248" x2="248" y1="174.0156" y2="187.0156"/><line style="stroke:#181818;stroke-width:1.0;" x1="207" x2="248" y1="187.0156" y2="187.0156"/><polygon fill="#181818" points="217,183.0156,207,187.0156,217,191.0156,213,187.0156" style="stroke:#181818;stroke-width:1.0;"/><text fill="#000000" font-family="sans-serif" font-size="13" lengthAdjust="spacing" textLength="158" x="213" y="169.1592">Socket created for Player 2</text><path d="M158,200.0156 L158,226.0156 L253,226.0156 L253,210.0156 L243,200.0156 L158,200.0156 " fill="#FEFFDD" style="stroke:#181818;stroke-width:0.5;"/><path d="M243,200.0156 L243,210.0156 L253,210.0156 L243,200.0156 " fill="#FEFFDD" style="stroke:#181818;stroke-width:0.5;"/><text fill="#000000" font-family="sans-serif" font-size="13" lengthAdjust="spacing" textLength="74" x="164" y="218.5107">Game Starts</text><polygon fill="#181818" points="45,249.7188,35,253.7188,45,257.7188,41,253.7188" style="stroke:#181818;stroke-width:1.0;"/><line style="stroke:#181818;stroke-width:1.0;" x1="39" x2="205" y1="253.7188" y2="253.7188"/><text fill="#000000" font-family="sans-serif" font-size="13" lengthAdjust="spacing" textLength="148" x="51" y="248.8623">Send Initial Balls Position</text><polygon fill="#181818" points="366,280.0703,376,284.0703,366,288.0703,370,284.0703" style="stroke:#181818;stroke-width:1.0;"/><line style="stroke:#181818;stroke-width:1.0;" x1="206" x2="372" y1="284.0703" y2="284.0703"/><text fill="#000000" font-family="sans-serif" font-size="13" lengthAdjust="spacing" textLength="148" x="213" y="279.2139">Send Initial Balls Position</text><path d="M159,297.0703 L159,323.0703 L253,323.0703 L253,307.0703 L243,297.0703 L159,297.0703 " fill="#FEFFDD" style="stroke:#181818;stroke-width:0.5;"/><path d="M243,297.0703 L243,307.0703 L253,307.0703 L243,297.0703 " fill="#FEFFDD" style="stroke:#181818;stroke-width:0.5;"/><text fill="#000000" font-family="sans-serif" font-size="13" lengthAdjust="spacing" textLength="73" x="165" y="315.5654">Player1 Turn</text><polygon fill="#181818" points="366,346.7734,376,350.7734,366,354.7734,370,350.7734" style="stroke:#181818;stroke-width:1.0;"/><line style="stroke:#181818;stroke-width:1.0;" x1="206" x2="372" y1="350.7734" y2="350.7734"/><text fill="#000000" font-family="sans-serif" font-size="13" lengthAdjust="spacing" textLength="113" x="213" y="345.917">Wait Player 1 Move</text><polygon fill="#181818" points="45,377.125,35,381.125,45,385.125,41,381.125" style="stroke:#181818;stroke-width:1.0;"/><line style="stroke:#181818;stroke-width:1.0;" x1="39" x2="205" y1="381.125" y2="381.125"/><text fill="#000000" font-family="sans-serif" font-size="13" lengthAdjust="spacing" textLength="56" x="51" y="376.2686">Your Turn</text><polygon fill="#181818" points="194,407.4766,204,411.4766,194,415.4766,198,411.4766" style="stroke:#181818;stroke-width:1.0;"/><line style="stroke:#181818;stroke-width:1.0;" x1="34" x2="200" y1="411.4766" y2="411.4766"/><text fill="#000000" font-family="sans-serif" font-size="13" lengthAdjust="spacing" textLength="67" x="41" y="406.6201">Notify move</text><polygon fill="#181818" points="45,437.8281,35,441.8281,45,445.8281,41,441.8281" style="stroke:#181818;stroke-width:1.0;"/><line style="stroke:#181818;stroke-width:1.0;" x1="39" x2="205" y1="441.8281" y2="441.8281"/><text fill="#000000" font-family="sans-serif" font-size="13" lengthAdjust="spacing" textLength="114" x="51" y="436.9717">Send Balls Position</text><polygon fill="#181818" points="366,468.1797,376,472.1797,366,476.1797,370,472.1797" style="stroke:#181818;stroke-width:1.0;"/><line style="stroke:#181818;stroke-width:1.0;" x1="206" x2="372" y1="472.1797" y2="472.1797"/><text fill="#000000" font-family="sans-serif" font-size="13" lengthAdjust="spacing" textLength="114" x="213" y="467.3232">Send Balls Position</text><path d="M159,485.1797 L159,511.1797 L253,511.1797 L253,495.1797 L243,485.1797 L159,485.1797 " fill="#FEFFDD" style="stroke:#181818;stroke-width:0.5;"/><path d="M243,485.1797 L243,495.1797 L253,495.1797 L243,485.1797 " fill="#FEFFDD" style="stroke:#181818;stroke-width:0.5;"/><text fill="#000000" font-family="sans-serif" font-size="13" lengthAdjust="spacing" textLength="73" x="165" y="503.6748">Player2 Turn</text><polygon fill="#181818" points="45,534.8828,35,538.8828,45,542.8828,41,538.8828" style="stroke:#181818;stroke-width:1.0;"/><line style="stroke:#181818;stroke-width:1.0;" x1="39" x2="205" y1="538.8828" y2="538.8828"/><text fill="#000000" font-family="sans-serif" font-size="13" lengthAdjust="spacing" textLength="113" x="51" y="534.0264">Wait Player 2 Move</text><polygon fill="#181818" points="366,565.2344,376,569.2344,366,573.2344,370,569.2344" style="stroke:#181818;stroke-width:1.0;"/><line style="stroke:#181818;stroke-width:1.0;" x1="206" x2="372" y1="569.2344" y2="569.2344"/><text fill="#000000" font-family="sans-serif" font-size="13" lengthAdjust="spacing" textLength="56" x="213" y="564.3779">Your Turn</text><polygon fill="#181818" points="217,595.5859,207,599.5859,217,603.5859,213,599.5859" style="stroke:#181818;stroke-width:1.0;"/><line style="stroke:#181818;stroke-width:1.0;" x1="211" x2="377" y1="599.5859" y2="599.5859"/><text fill="#000000" font-family="sans-serif" font-size="13" lengthAdjust="spacing" textLength="67" x="223" y="594.7295">Notify move</text><polygon fill="#181818" points="45,625.9375,35,629.9375,45,633.9375,41,629.9375" style="stroke:#181818;stroke-width:1.0;"/><line style="stroke:#181818;stroke-width:1.0;" x1="39" x2="205" y1="629.9375" y2="629.9375"/><text fill="#000000" font-family="sans-serif" font-size="13" lengthAdjust="spacing" textLength="114" x="51" y="625.0811">Send Balls Position</text><polygon fill="#181818" points="366,656.2891,376,660.2891,366,664.2891,370,660.2891" style="stroke:#181818;stroke-width:1.0;"/><line style="stroke:#181818;stroke-width:1.0;" x1="206" x2="372" y1="660.2891" y2="660.2891"/><text fill="#000000" font-family="sans-serif" font-size="13" lengthAdjust="spacing" textLength="114" x="213" y="655.4326">Send Balls Position</text><path d="M163,673.2891 L163,699.2891 L249,699.2891 L249,683.2891 L239,673.2891 L163,673.2891 " fill="#FEFFDD" style="stroke:#181818;stroke-width:0.5;"/><path d="M239,673.2891 L239,683.2891 L249,683.2891 L239,673.2891 " fill="#FEFFDD" style="stroke:#181818;stroke-width:0.5;"/><text fill="#000000" font-family="sans-serif" font-size="13" lengthAdjust="spacing" textLength="65" x="169" y="691.7842">Game Over</text><polygon fill="#181818" points="45,722.9922,35,726.9922,45,730.9922,41,726.9922" style="stroke:#181818;stroke-width:1.0;"/><line style="stroke:#181818;stroke-width:1.0;" x1="39" x2="205" y1="726.9922" y2="726.9922"/><text fill="#000000" font-family="sans-serif" font-size="13" lengthAdjust="spacing" textLength="78" x="51" y="722.1357">Notify Winner</text><polygon fill="#181818" points="366,753.3438,376,757.3438,366,761.3438,370,757.3438" style="stroke:#181818;stroke-width:1.0;"/><line style="stroke:#181818;stroke-width:1.0;" x1="206" x2="372" y1="757.3438" y2="757.3438"/><text fill="#000000" font-family="sans-serif" font-size="13" lengthAdjust="spacing" textLength="78" x="213" y="752.4873">Notify Winner</text><path d="M159,770.3438 L159,796.3438 L253,796.3438 L253,780.3438 L243,770.3438 L159,770.3438 " fill="#FEFFDD" style="stroke:#181818;stroke-width:0.5;"/><path d="M243,770.3438 L243,780.3438 L253,780.3438 L243,770.3438 " fill="#FEFFDD" style="stroke:#181818;stroke-width:0.5;"/><text fill="#000000" font-family="sans-serif" font-size="13" lengthAdjust="spacing" textLength="73" x="165" y="788.8389">Close Server</text><!--MD5=[5096e204f0df5359d01c3a2ef02f0ff3]
@startuml Sequence

participant Client1 order 10
participant Server order 20
participant Client2 order 30

Client1 -> Server: Connect to server
Server <- Server: Socket created for Player 1

Client2 -> Server: Connect to server
Server -> Server: Socket created for Player 2

note over Server : Game Starts

Client1 <- Server: Send Initial Balls Position
Client2 <- Server: Send Initial Balls Position

note over Server: Player1 Turn

Client2 <- Server: Wait Player 1 Move

Client1 <- Server: Your Turn
Client1 -> Server: Notify move

Client1 <- Server: Send Balls Position
Client2 <- Server: Send Balls Position

note over Server: Player2 Turn

Client1 <- Server: Wait Player 2 Move

Client2 <- Server: Your Turn
Client2 -> Server: Notify move

Client1 <- Server: Send Balls Position
Client2 <- Server: Send Balls Position

note over Server: Game Over

Server -> Client1: Notify Winner
Server -> Client2: Notify Winner

note over Server: Close Server

@enduml

PlantUML version 1.2022.7(Mon Aug 22 19:01:30 CEST 2022)
(GPL source distribution)
Java Runtime: Java(TM) SE Runtime Environment
JVM: Java HotSpot(TM) 64-Bit Server VM
Default Encoding: UTF-8
Language: en
Country: GB
--></g></svg>